HIERARCHY
ROOT Hips
{
	OFFSET 0.000000 0.000000 0.000000
	CHANNELS 6 Xposition Yposition Zposition Xrotation Yrotation Zrotation
	JOINT LeftUpLeg_virtual
	{
		OFFSET 0.000000 0.000000 0.000000
		CHANNELS 3 Xrotation Yrotation Zrotation
		JOINT LeftUpLeg
		{
			OFFSET 13.026900 -6.336304 -1.092800
			CHANNELS 3 Xrotation Yrotation Zrotation
			JOINT LeftLeg
			{
				OFFSET 0.524474 -46.096886 9.782700
				CHANNELS 3 Xrotation Yrotation Zrotation
				JOINT LeftFoot
				{
					OFFSET -0.524474 -53.427422 -12.948200
					CHANNELS 3 Xrotation Yrotation Zrotation
					JOINT LeftToeBase
					{
						OFFSET 0.192200 -14.009700 16.364100
						CHANNELS 3 Xrotation Yrotation Zrotation
						JOINT LeftToe_End
						{
							OFFSET -1.784700 -0.561700 9.474800
							CHANNELS 3 Xrotation Yrotation Zrotation
							End Site
							{
								OFFSET 0 0 0
							}
						}
					}
				}
			}
		}
	}
	JOINT RightUpLeg_virtual
	{
		OFFSET 0.000000 0.000000 0.000000
		CHANNELS 3 Xrotation Yrotation Zrotation
		JOINT RightUpLeg
		{
			OFFSET -12.883000 -6.336304 -1.092800
			CHANNELS 3 Xrotation Yrotation Zrotation
			JOINT RightLeg
			{
				OFFSET -0.524587 -46.096825 9.782800
				CHANNELS 3 Xrotation Yrotation Zrotation
				JOINT RightFoot
				{
					OFFSET 0.524587 -53.427383 -12.948300
					CHANNELS 3 Xrotation Yrotation Zrotation
					JOINT RightToeBase
					{
						OFFSET -0.192200 -14.009700 16.364100
						CHANNELS 3 Xrotation Yrotation Zrotation
						JOINT RightToe_End
						{
							OFFSET 1.784700 -0.561700 9.474800
							CHANNELS 3 Xrotation Yrotation Zrotation
							End Site
							{
								OFFSET 0 0 0
							}
						}
					}
				}
			}
		}
	}
	JOINT Spine_virtual
	{
		OFFSET 0.000000 0.000000 0.000000
		CHANNELS 3 Xrotation Yrotation Zrotation
		JOINT Spine
		{
			OFFSET 0.072000 7.257294 -0.789700
			CHANNELS 3 Xrotation Yrotation Zrotation
			JOINT Spine1
			{
				OFFSET 0.000000 12.508769 -0.658067
				CHANNELS 3 Xrotation Yrotation Zrotation
				JOINT Spine1_split
				{
					OFFSET 0.000000 12.508769 -0.658067
					CHANNELS 3 Xrotation Yrotation Zrotation
					JOINT Spine2
					{
						OFFSET 0.000000 12.508769 -0.658067
						CHANNELS 3 Xrotation Yrotation Zrotation
						JOINT Neck_virtual
						{
							OFFSET 0.000000 0.000000 0.000000
							CHANNELS 3 Xrotation Yrotation Zrotation
							JOINT Neck
							{
								OFFSET 0.000000 14.033295 7.520400
								CHANNELS 3 Xrotation Yrotation Zrotation
								JOINT Head
								{
									OFFSET 0.000000 8.198502 5.703100
									CHANNELS 3 Xrotation Yrotation Zrotation
									JOINT HeadTop_End
									{
										OFFSET 0.000000 17.760803 13.332701
										CHANNELS 3 Xrotation Yrotation Zrotation
										End Site
										{
											OFFSET 0 0 0
										}
									}
								}
							}
						}
						JOINT LeftShoulder_virtual
						{
							OFFSET 0.000000 0.000000 0.000000
							CHANNELS 3 Xrotation Yrotation Zrotation
							JOINT LeftShoulder
							{
								OFFSET 6.292450 5.785301 -0.669000
								CHANNELS 3 Xrotation Yrotation Zrotation
								JOINT LeftShoulder_split
								{
									OFFSET 6.292450 5.785301 -0.669000
									CHANNELS 3 Xrotation Yrotation Zrotation
									JOINT LeftArm
									{
										OFFSET 13.907140 -6.093903 1.965100
										CHANNELS 3 Xrotation Yrotation Zrotation
										JOINT LeftForeArm
										{
											OFFSET 34.140198 0.000000 0.000000
											CHANNELS 3 Xrotation Yrotation Zrotation
											JOINT LeftHand
											{
												OFFSET 40.960209 0.000000 0.000000
												CHANNELS 3 Xrotation Yrotation Zrotation
												End Site
												{
													OFFSET 0 0 0
												}
											}
										}
									}
								}
							}
						}
						JOINT RightShoulder_virtual
						{
							OFFSET 0.000000 0.000000 0.000000
							CHANNELS 3 Xrotation Yrotation Zrotation
							JOINT RightShoulder
							{
								OFFSET -6.292450 5.785301 -0.669000
								CHANNELS 3 Xrotation Yrotation Zrotation
								JOINT RightShoulder_split
								{
									OFFSET -6.292450 5.785301 -0.669000
									CHANNELS 3 Xrotation Yrotation Zrotation
									JOINT RightArm
									{
										OFFSET -13.907140 -6.093903 1.965100
										CHANNELS 3 Xrotation Yrotation Zrotation
										JOINT RightForeArm
										{
											OFFSET -34.140198 0.000000 0.000000
											CHANNELS 3 Xrotation Yrotation Zrotation
											JOINT RightHand
											{
												OFFSET -40.960209 0.000000 0.000000
												CHANNELS 3 Xrotation Yrotation Zrotation
												End Site
												{
													OFFSET 0 0 0
												}
											}
										}
									}
								}
							}
						}
					}
				}
			}
		}
	}
}
MOTION
Frames: 7
Frame Time: 0.03333333
4.199243 111.620682 -9.544621 0.000000 0.000000 0.000000 17.351395 -43.404315 13.394850 -43.127413 20.353568 14.993500 16.454001 -17.863532 0.369994 11.509468 -14.311697 3.044445 6.265388 -1.719093 1.183965 0.000000 0.000000 0.000000 16.631644 -42.135358 12.629325 1.372418 -6.865978 -10.518142 20.542332 8.253870 -2.832754 -27.452352 -20.818174 23.143802 -4.694701 6.689407 -6.446121 0.000000 0.000000 0.000000 14.962866 -31.776922 9.250335 7.899434 7.994847 -5.442727 14.375094 2.420319 -5.958424 0.355707 0.699737 0.121366 0.000000 0.000000 0.000000 15.054466 4.311219 -5.096511 -37.970213 13.633230 14.835634 -51.653685 -27.046045 -8.475147 0.000000 0.000000 0.000000 13.913788 2.299073 -5.314901 4.035582 2.800303 -13.887949 0.702935 2.463371 -2.678019 -16.867873 -9.475346 -30.704811 30.363968 -52.157940 15.146547 0.000000 0.000000 0.000000 13.299187 3.564649 -3.944820 -11.407306 21.108840 14.993464 18.735960 -8.171550 5.165154 22.261794 -34.856552 68.060397 -11.923881 56.455560 3.881973 0.000000 0.000000 0.000000 
5.948796 110.815407 -11.179829 0.000000 0.000000 0.000000 18.488093 -43.256780 13.975481 -43.895351 17.812382 14.961113 18.196473 -17.999813 0.666055 11.192967 -13.393239 2.810852 5.509976 -1.635018 1.393921 0.000000 0.000000 0.000000 16.176103 -41.678067 12.653508 0.062365 -5.995389 -11.549264 21.990436 8.775032 -3.003463 -27.556064 -20.264640 23.385355 -2.356381 6.423328 -6.698014 0.000000 0.000000 0.000000 15.733925 -32.196668 10.148374 8.067439 7.835994 -4.979696 14.330664 2.085209 -5.938958 0.348538 0.417750 0.128246 0.000000 0.000000 0.000000 15.242494 4.012830 -5.067982 -37.831007 14.339738 15.316182 -50.673925 -25.665611 -8.185139 0.000000 0.000000 0.000000 14.190522 2.004116 -5.320398 3.726163 1.529781 -13.619665 0.416903 -0.678103 -2.576374 -17.638784 -6.562179 -31.621228 26.057858 -47.999233 12.740765 0.000000 0.000000 0.000000 13.349450 3.183351 -4.083288 -11.414738 21.095493 15.188425 19.548859 -9.342610 4.380366 21.287179 -35.203953 68.809375 -13.542044 59.147697 5.483146 0.000000 0.000000 0.000000 
7.992014 108.346954 -12.717426 0.000000 0.000000 0.000000 19.450454 -42.782662 15.160969 -46.180029 14.762692 14.727244 21.368114 -17.303154 1.369331 10.238902 -11.334743 0.881738 3.756431 -1.428861 2.097896 0.000000 0.000000 0.000000 16.318580 -41.954597 13.868973 -4.979191 -4.817414 -13.487935 26.861068 9.561448 -3.396652 -26.544881 -19.104000 24.294945 0.007244 6.286729 -7.735510 0.000000 0.000000 0.000000 17.054178 -32.969521 12.037729 8.456290 7.253307 -4.519936 14.276420 1.464057 -6.016298 0.286316 0.194376 0.045107 0.000000 0.000000 0.000000 15.611202 3.411549 -5.213385 -37.886288 14.670010 16.271280 -49.603416 -23.018081 -8.004341 0.000000 0.000000 0.000000 14.611484 1.373020 -5.570352 3.324635 -0.302677 -12.427043 0.398430 -3.677851 -2.608912 -19.997631 -5.103000 -33.278683 26.562049 -40.168131 13.926139 0.000000 0.000000 0.000000 13.649895 2.441238 -4.356912 -11.520211 20.649299 14.960086 18.427745 -8.027803 4.381799 17.291616 -33.501641 66.808082 -15.889706 59.014590 8.392350 0.000000 0.000000 0.000000 
9.777441 104.623596 -13.905712 0.000000 0.000000 0.000000 20.529756 -42.561053 17.163340 -50.210961 11.056921 14.018509 25.896230 -16.180691 2.289744 9.815971 -8.582494 -3.016041 2.603458 -1.095780 2.514794 0.000000 0.000000 0.000000 17.541997 -42.689847 16.420909 -13.107908 -3.260535 -16.073341 34.398089 10.325791 -4.069411 -25.205109 -17.311828 25.097853 1.978364 6.247340 -9.314002 0.000000 0.000000 0.000000 18.982834 -33.681674 14.646118 8.969889 6.321781 -4.265056 14.283542 0.698560 -6.046363 0.231469 -0.017510 0.048778 0.000000 0.000000 0.000000 15.977522 2.748698 -5.433389 -37.783896 14.933439 17.076533 -49.441188 -19.382743 -8.379502 0.000000 0.000000 0.000000 15.082149 0.597170 -5.880167 2.998961 -2.044483 -10.904282 0.352696 -5.348200 -3.290692 -24.287721 -5.427386 -35.469903 28.735856 -30.222334 15.959997 0.000000 0.000000 0.000000 14.203556 1.586266 -4.649564 -11.660859 19.869664 14.844977 15.830808 -5.054835 4.758248 11.031013 -29.919770 62.714537 -17.442150 55.507158 11.270096 0.000000 0.000000 0.000000 
11.346313 99.644142 -14.666615 0.000000 0.000000 0.000000 21.804858 -42.863252 20.032397 -55.924008 6.508293 12.926244 31.544085 -14.600031 3.278258 10.901022 -5.471789 -8.465401 2.370287 -0.688876 2.245518 0.000000 0.000000 0.000000 19.737160 -43.911409 20.002793 -23.700099 -1.174928 -19.048165 43.699499 10.489474 -4.829271 -23.894056 -15.163853 25.431374 3.905379 6.244601 -11.080583 0.000000 0.000000 0.000000 21.260123 -34.556488 17.590543 9.601893 5.183010 -4.317469 14.544958 0.087468 -5.951089 0.181344 -0.253234 0.019607 0.000000 0.000000 0.000000 16.318913 2.300053 -5.532875 -36.996088 15.445571 17.150771 -50.765811 -15.190291 -9.851441 0.000000 0.000000 0.000000 15.505004 0.014865 -6.103408 2.713155 -3.878771 -9.800080 0.873162 -5.440350 -3.359671 -29.096951 -7.191070 -37.832151 30.393457 -21.637010 17.391526 0.000000 0.000000 0.000000 14.966526 0.945547 -4.808989 -11.973757 19.051307 15.513839 12.749960 -2.083659 5.113777 3.836440 -25.345787 57.566644 -17.310720 49.126422 13.128176 0.000000 0.000000 0.000000 
12.491199 93.914917 -14.843128 0.000000 0.000000 0.000000 23.439529 -43.317053 23.404661 -62.730110 1.348309 11.302238 37.317896 -12.490092 4.098106 13.360425 -2.624859 -14.467037 1.775099 -0.301337 1.465572 0.000000 0.000000 0.000000 22.787924 -45.532732 24.240283 -35.403811 1.385816 -22.110352 53.867277 10.104862 -5.447463 -22.960533 -12.716787 25.600295 5.676511 6.278612 -12.854476 0.000000 0.000000 0.000000 23.874035 -35.398951 20.414916 10.121305 4.057366 -4.584922 15.127112 -0.157624 -5.666418 0.088643 -0.485978 0.076595 0.000000 0.000000 0.000000 16.704409 2.227419 -5.414342 -35.359346 16.435459 16.055020 -53.615742 -11.042245 -12.760670 0.000000 0.000000 0.000000 15.962220 -0.131173 -6.194784 2.374378 -6.008285 -9.820464 1.953125 -3.669394 -3.109720 -32.954071 -9.588121 -39.414153 30.865143 -18.166097 18.502231 0.000000 0.000000 0.000000 15.874813 0.761117 -4.757920 -12.566185 18.651537 17.625829 10.096461 -0.437449 5.468963 -3.455754 -20.772963 52.061625 -15.921453 42.054656 14.241877 0.000000 0.000000 0.000000 
13.292083 87.735504 -14.528255 0.000000 0.000000 0.000000 25.076596 -43.504849 26.529148 -69.724968 -3.860008 9.218911 42.652110 -10.102745 4.498367 16.226569 -0.490180 -19.547607 0.077667 -0.013347 0.284340 0.000000 0.000000 0.000000 26.126976 -47.349293 28.363879 -46.404838 4.406692 -24.926567 64.126652 9.702830 -5.977096 -22.902147 -10.134422 26.468354 6.471004 6.450417 -14.660467 0.000000 0.000000 0.000000 26.338161 -35.996535 22.885146 10.522326 3.094683 -4.839382 15.815440 -0.012917 -5.305351 -0.000586 -0.631968 0.111832 0.000000 0.000000 0.000000 17.093590 2.527538 -5.162644 -33.145942 17.998593 13.505427 -57.137907 -7.312045 -16.997173 0.000000 0.000000 0.000000 16.314766 0.160588 -6.156464 1.850699 -8.812831 -11.112423 2.643035 -1.129731 -3.424842 -35.095810 -11.904398 -40.032883 29.231622 -21.291711 19.325219 0.000000 0.000000 0.000000 16.897929 1.041168 -4.552936 -13.440443 18.924755 21.053356 8.235826 0.059218 4.985283 -9.891378 -16.640421 47.587721 -13.951179 36.599705 14.699855 0.000000 0.000000 0.000000 
